<?xml version="1.0" encoding="utf-8"?>
<!-- Generator: Adobe Illustrator 27.3.1, SVG Export Plug-In . SVG Version: 6.00 Build 0)  -->
<svg version="1.1" id="new_logo" xmlns="http://www.w3.org/2000/svg" xmlns:xlink="http://www.w3.org/1999/xlink" x="0px" y="0px"
	 viewBox="0 0 97 96.2" style="enable-background:new 0 0 97 96.2;" xml:space="preserve">
<style type="text/css">
	.st0{fill:#EEE8D9;}
	.st1{font-family:'PalatinoLinotype-Bold';}
	.st2{font-size:17.84px;}
	.st3{letter-spacing:-1;}
	.st4{fill:none;stroke:#EEE8D9;stroke-width:0.25;stroke-miterlimit:10;}
</style>
<text transform="matrix(0.98 0 0 1 16.8955 48.465)" class="st0 st1 st2">Grande</text>
<text transform="matrix(0.98 0 0 1 25.2841 63.465)" class="st0 st1 st2 st3">V</text>
<text transform="matrix(0.98 0 0 1 37.6518 63.465)" class="st0 st1 st2">enti</text>
<g>
	<path class="st4" d="M86.2,43.6c0,11.7-9.3,21.1-16.6,28.8c-7.4,7.8-16.4,16.3-28.2,16.3s-22.3-7.6-30.3-15.3
		C3,65.7,0.1,55.4,0.1,43.6s4.2-20.8,12.3-28.7C20.4,7,29.6,0.1,41.3,0.1S65,4,72.3,12C79.6,19.8,86.2,31.9,86.2,43.6L86.2,43.6z"/>
	<path class="st4" d="M96.8,51.5c0,11.4-8.3,22.3-15.8,29.8C73.6,88.8,62.7,96,51.2,96s-23.9-5.7-31.4-13.2
		c-7.5-7.5-8.3-19.9-8.3-31.4s1.4-23.3,8.9-30.8s19.3-14,30.8-14s21.6,8.2,29.1,15.7S96.8,40,96.8,51.5z"/>
</g>
</svg>
