<?xml version="1.0" encoding="UTF-8"?>
<svg id="new_logo" data-name="new logo" xmlns="http://www.w3.org/2000/svg" viewBox="0 0 250 150">
  <defs>
    <style>
      .cls-1 {
        font-family: PalatinoLinotype-Bold, 'Palatino Linotype';
        font-size: 17.84px;
        font-weight: 700;
      }

      .cls-1, .cls-2 {
        fill: #eee8d9;
      }

      .cls-3 {
        letter-spacing: -.07em;
      }

      .cls-4 {
        fill: #61433a;
      }
    </style>
  </defs>
  <g>
    <g>
      <g>
        <path class="cls-2" d="m154.24,92.66h-58.49c-.53,0-.8.63-.44,1.02,1.67,1.77,5.68,5.22,11.54,5.31.15,0,.3.06.41.17l1.61,1.61c.11.11.27.18.43.18h31.36c.16,0,.31-.06.43-.18l1.61-1.61c.11-.11.26-.17.41-.17,5.86-.09,9.87-3.54,11.54-5.31.37-.39.1-1.02-.44-1.02Z"/>
        <path class="cls-2" d="m154.18,77.1c-.36-2.65-2.45-4.45-4.95-5.07-1.84-.46-3.71-.4-5.57-.19.03-.86.04-1.55.04-2.01,0-.33-.27-.6-.6-.6h-36.19c-.33,0-.6.27-.6.6,0,3.61.5,22.28,9.85,22.82h17.69c1.81-.11,3.29-.9,4.5-2.13,2.3-.17,4.53-.59,6.68-1.5,2.52-1.06,4.8-2.64,6.58-4.73,1.66-1.95,2.93-4.59,2.57-7.21Zm-4.02,4.44c-1.22,2.11-3.21,3.78-5.34,4.94-1.48.8-3.09,1.38-4.74,1.72,1.61-2.82,2.51-6.55,3.01-9.96,1.14-.36,1.99-1.02,2.6-1.7.99-1.1,2.58-1.52,3.9-.87,0,0,.02,0,.03.01,2.35,1.17,1.61,4.02.54,5.86Z"/>
      </g>
      <g>
        <path class="cls-4" d="m140.29,88.78c3.21-.76,6.41-2.41,8.67-4.83,1.25-1.34,2.32-3.03,2.62-4.86.3-1.82-.53-3.55-2.37-4.07-.98-.28-2.02-.11-2.91.37-.68.37-1.22.96-1.82,1.46,1.04-1.03,1.92-2.03,3.48-2.17,1.88-.16,3.6,1.13,3.88,3,.29,1.93-.72,3.92-1.85,5.41-1.2,1.58-2.78,2.85-4.5,3.83-1.61.91-3.39,1.57-5.21,1.87Z"/>
        <path class="cls-4" d="m108.06,98.79s2.12-.02,5.29-.04c3.18,0,7.41-.02,11.64-.04,4.23.01,8.47.03,11.64.04,3.18.02,5.29.04,5.29.04,0,0-2.12.02-5.29.04-3.18,0-7.41.02-11.64.04-4.23-.01-8.47-.03-11.64-.04-3.18-.02-5.29-.04-5.29-.04Z"/>
        <path class="cls-4" d="m96.4,93.87s14.3-.04,28.6-.08c14.3.04,28.6.08,28.6.08,0,0-14.3.04-28.6.08-14.3-.04-28.6-.08-28.6-.08Z"/>
        <path class="cls-4" d="m113.77,89.9c-2.33-2.39-3.29-5.9-4.04-9.06-.69-2.87-1.09-5.85-1.25-8.79l1.83-.09c.25,6.11.78,12.35,3.46,17.94Z"/>
      </g>
    </g>
    <g>
      <path class="cls-2" d="m118.28,41.7c.09.86.05,1.66-.23,2.49-.31.92-.58,1.75-.55,2.74.03,1,.3,1.81.73,2.69.46.94.7,1.92.68,2.97-.03,1.94-1.31,3.43-1.4,5.34-.05,1.03.22,1.88.54,2.84.28.83.32,1.62.23,2.49-.33-1.93-1.66-3.4-1.76-5.39-.06-1.09.2-2.04.62-3.03.32-.74.49-1.47.51-2.27.01-.95-.22-1.76-.58-2.63-.4-.96-.6-1.91-.53-2.95.06-.97.34-1.83.81-2.67.48-.85.78-1.64.94-2.61Z"/>
      <path class="cls-2" d="m125.57,36.52c.11.77.16,1.53.09,2.31-.11,1.09-.5,2.12-.6,3.21-.09.98-.04,1.98.1,2.96.15,1.02.54,1.92.85,2.89.53,1.64.63,3.45.37,5.16-.16,1.04-.58,1.98-.91,2.97-.32.98-.43,2.04-.46,3.07-.03,1.35.3,2.56.54,3.87.18.99.14,1.96,0,2.95-.17-.9-.35-1.79-.69-2.64-.35-.9-.81-1.74-1.04-2.69-.55-2.22-.24-4.33.39-6.48.46-1.56.54-3.38.22-4.97-.22-1.06-.65-2.06-.8-3.13-.16-1.08-.13-2.2.03-3.27.17-1.16.62-2.18,1.08-3.25.41-.95.63-1.94.82-2.96Z"/>
      <path class="cls-2" d="m132.86,41.7c.09.86.05,1.66-.23,2.49-.31.92-.58,1.75-.55,2.74.03,1,.3,1.81.73,2.69.46.94.7,1.92.68,2.97-.03,1.94-1.31,3.43-1.4,5.34-.05,1.03.22,1.88.54,2.84.28.83.32,1.62.23,2.49-.33-1.93-1.66-3.4-1.76-5.39-.06-1.09.2-2.04.62-3.03.32-.74.49-1.47.51-2.27.01-.95-.22-1.76-.58-2.63-.4-.96-.6-1.91-.53-2.95.06-.97.34-1.83.81-2.67.48-.85.78-1.64.94-2.61Z"/>
    </g>
  </g>
  <g>
    <path class="cls-2" d="m69.84,81.37h2.17v.88h-3.26v-7.51h3.18v.88h-2.09v2.32h1.73v.88h-1.73v2.57Z"/>
    <path class="cls-2" d="m75.03,81.02v-1.84c0-.14-.02-.24-.07-.28-.04-.04-.14-.07-.28-.07h-.89c-.73,0-1.09-.36-1.09-1.07v-1.98c0-.7.37-1.06,1.12-1.06h1.18c.74,0,1.12.35,1.12,1.06v1.1h-1.09v-.94c0-.14-.02-.24-.07-.28-.05-.04-.14-.07-.29-.07h-.5c-.14,0-.24.02-.29.07-.05.04-.07.14-.07.28v1.67c0,.14.02.24.07.28.05.04.14.07.29.07h.88c.74,0,1.1.35,1.1,1.06v2.16c0,.7-.38,1.06-1.13,1.06h-1.16c-.74,0-1.12-.35-1.12-1.06v-1.1h1.09v.94c0,.14.02.24.07.28.05.04.14.07.29.07h.5c.14,0,.24-.02.28-.07s.07-.14.07-.28Z"/>
    <path class="cls-2" d="m80.23,74.74v.88h-1.26v6.64h-1.08v-6.64h-1.26v-.88h3.6Z"/>
    <path class="cls-2" d="m80.94,74.74h2.62c.74,0,1.12.35,1.12,1.06v5.4c0,.7-.37,1.06-1.12,1.06h-2.62v-7.51Zm2.64,6.31v-5.11c0-.14-.02-.24-.07-.28-.05-.04-.14-.07-.29-.07h-1.19v5.81h1.19c.14,0,.24-.02.29-.07.05-.04.07-.14.07-.28Z"/>
    <path class="cls-2" d="m167.47,74.74v7.51h-1.09v-6.64h-.86v-.88h1.96Z"/>
    <path class="cls-2" d="m169.67,74.74h1.27c.75,0,1.13.35,1.13,1.06v5.4c0,.7-.38,1.06-1.13,1.06h-1.24c-.75,0-1.13-.35-1.13-1.06v-1.28h1.08v1.12c0,.14.02.24.07.28.04.04.14.07.29.07h.61c.14,0,.24-.02.28-.07.04-.04.07-.14.07-.28v-1.85h-1.31c-.74,0-1.12-.36-1.12-1.07v-2.32c0-.7.37-1.06,1.12-1.06Zm.32,3.59h.98v-2.36c0-.14-.02-.24-.07-.28-.04-.04-.14-.07-.28-.07h-.64c-.14,0-.24.02-.29.07-.05.04-.07.14-.07.28v2.02c0,.14.02.23.07.28.05.05.14.07.29.07Z"/>
    <path class="cls-2" d="m174.21,74.74h1.27c.75,0,1.13.35,1.13,1.06v5.4c0,.7-.38,1.06-1.13,1.06h-1.24c-.75,0-1.13-.35-1.13-1.06v-1.28h1.08v1.12c0,.14.02.24.07.28.04.04.14.07.29.07h.61c.14,0,.24-.02.28-.07.04-.04.07-.14.07-.28v-1.85h-1.31c-.74,0-1.12-.36-1.12-1.07v-2.32c0-.7.37-1.06,1.12-1.06Zm.32,3.59h.98v-2.36c0-.14-.02-.24-.07-.28-.04-.04-.14-.07-.28-.07h-.64c-.14,0-.24.02-.29.07-.05.04-.07.14-.07.28v2.02c0,.14.02.23.07.28.05.05.14.07.29.07Z"/>
    <path class="cls-2" d="m178.81,77.93h1.32c.74,0,1.12.36,1.12,1.07v2.2c0,.7-.37,1.06-1.12,1.06h-1.27c-.75,0-1.13-.35-1.13-1.06v-5.4c0-.7.37-1.06,1.13-1.06h1.24c.74,0,1.12.35,1.12,1.06v1.3h-1.07v-1.13c0-.14-.02-.24-.07-.28-.05-.04-.14-.07-.29-.07h-.61c-.14,0-.24.02-.29.07-.05.04-.07.14-.07.28v1.97Zm1.36,3.1v-1.88c0-.14-.02-.23-.07-.28-.05-.05-.14-.07-.29-.07h-1v2.23c0,.14.02.24.07.28.05.04.14.07.29.07h.64c.14,0,.24-.02.29-.07.05-.04.07-.14.07-.28Z"/>
  </g>
  <g>
    <path class="cls-2" d="m74.94,55.5c-.12-.06-.15-.14-.06-.32l.64-1.37c.81-1.75,1.79-2.27,3.22-1.6,1.69.79,1.7,2.21,1.05,3.59l-.23.48,2.75,1.28q.16.08-.36,1.2l-7.02-3.26Zm1.4-1.56l-.32.69,2.77,1.29.28-.61c.36-.78.13-1.37-1.01-1.9-.73-.34-1.34-.29-1.72.53Z"/>
    <path class="cls-2" d="m77.93,49.45s-.16-.1-.02-.32l.81-1.28c1.03-1.63,2.06-2.02,3.4-1.19,1.03.65,1.32,1.46,1.17,2.31.65-.15,1.93-.3,3.53.52.14.09.17.16-.14.65-.11.17-.25.38-.41.61-1.71-.88-2.89-.77-3.4-.66-.05.1-.1.19-.15.26l-.29.45,2.57,1.62c.15.1.15.11-.51,1.14l-6.55-4.12Zm1.58-1.37l-.41.65,2.59,1.63.36-.57c.46-.73.3-1.35-.72-1.99-.73-.46-1.34-.48-1.82.28Z"/>
    <path class="cls-2" d="m89.58,45.03c.6.48.64.52.49.71l-2.29,2.81-6.01-4.88s-.14-.13.01-.32l2.31-2.84c.58.47.64.52.5.7l-1.53,1.89,1.84,1.49,1.45-1.78c.54.44.66.54.52.71l-1.3,1.6,2.37,1.93,1.65-2.03Z"/>
    <path class="cls-2" d="m85.77,38.91c-.12-.13-.04-.22.06-.32l.66-.62,3.4,1.51c.44.2,1.15.56,1.22.59-.02-.04-.37-.77-.52-1.21l-1.24-3.3c-.04-.11-.06-.2.05-.31l.74-.69,5.29,5.67q.12.13-.81,1l-1.85-2.04c-.71-.81-1.86-2.35-2.08-2.63.35.84.93,2.25,1.02,2.52l.58,1.81c.03.08-.02.14-.06.18l-.39.37-1.82-.78c-.26-.1-1.63-.79-2.47-1.19h0s1.63,1.35,2.47,2.23l1.81,1.89c.12.13.07.18-.78.98l-5.28-5.66Z"/>
    <path class="cls-2" d="m92.43,33.39c-.25-.34-.24-.35.76-1.08l4.6,6.23c.11.15.1.15-.9.89l-4.46-6.04Z"/>
    <path class="cls-2" d="m99.17,35.06c.46.79.94,1.25,2.05.6.46-.27.88-.64,1.06-.86l-3.44-5.86c-.1-.17-.08-.17.99-.8l3.86,6.59c-.24.35-1,1.06-2.04,1.67-2.11,1.24-2.94.43-3.6-.7l-2.74-4.68q-.1-.17,1.01-.82l2.85,4.87Z"/>
    <path class="cls-2" d="m102.41,27.08c-.07-.17.04-.22.17-.27l.84-.33,2.6,2.66c.33.34.86.94.92,1,0-.05-.05-.85-.04-1.31l.07-3.53c0-.12.02-.21.16-.27l.94-.37,2.82,7.21q.07.17-1.12.63l-.96-2.58c-.36-1.01-.86-2.87-.96-3.21,0,.91.03,2.43.01,2.72l-.13,1.9c0,.08-.07.12-.12.15l-.5.19-1.4-1.4c-.2-.19-1.23-1.33-1.86-2.02h0s1.02,1.86,1.47,2.99l.98,2.42c.07.17,0,.2-1.09.62l-2.81-7.2Z"/>
    <path class="cls-2" d="m118.16,22.92c.04.21-.02.43-.1.58-.17-.07-.56-.19-1.03-.11-.95.16-1.83.83-1.33,3.78.39,2.27,1.09,2.66,1.98,2.51.57-.1,1.09-.37,1.33-.58.12.13.24.33.27.52.07.44-.62.93-1.73,1.12-1.43.24-2.58-.05-3.14-3.3-.65-3.82.88-4.65,2.23-4.88,1.12-.19,1.47.08,1.52.37Z"/>
    <path class="cls-2" d="m123.04,22c1.99-.07,2.75.83,2.87,3.88.11,3.11-.72,4.17-2.74,4.25-1.97.07-2.78-.75-2.9-4-.11-3.01.8-4.05,2.77-4.12Zm.16,7.19c1.1-.04,1.45-.93,1.37-3.23-.08-2.26-.42-3.05-1.52-3.01-1.07.04-1.47.92-1.38,3.36.08,2.1.44,2.93,1.53,2.89Z"/>
    <path class="cls-2" d="m127.46,30.03l.68-7.7s.03-.19.28-.17l3.64.33c-.07.74-.07.79-.3.77l-2.42-.22-.21,2.39,2.28.2c-.06.69-.07.83-.3.81l-2.05-.19-.33,3.7s0,.18-.26.16l-1-.09Z"/>
    <path class="cls-2" d="m132.52,30.57l1.53-7.58s.05-.19.29-.14l3.58.72c-.15.73-.16.78-.38.73l-2.38-.48-.47,2.35,2.25.45c-.14.68-.16.82-.39.78l-2.02-.41-.73,3.64s-.02.18-.28.13l-.99-.2Z"/>
    <path class="cls-2" d="m141.42,32.06c-.23.73-.25.79-.49.71l-3.45-1.11,2.36-7.36s.07-.18.31-.1l3.48,1.12c-.23.71-.25.79-.47.72l-2.32-.74-.72,2.25,2.18.7c-.21.67-.26.81-.48.74l-1.97-.63-.93,2.91,2.49.8Z"/>
    <path class="cls-2" d="m146.26,34.17c-.32.7-.34.75-.56.65l-3.31-1.49,3.17-7.06s.09-.17.32-.07l3.33,1.5c-.31.68-.34.75-.55.66l-2.22-1-.97,2.16,2.09.94c-.29.64-.35.78-.56.68l-1.88-.85-1.25,2.79,2.38,1.07Z"/>
    <path class="cls-2" d="m153.9,30.59c.08-.11.2-.13.46.06l1.24.86c1.01.7,1.95,1.7,1.12,2.91-.71,1.03-1.67.98-2.25.67.56.43,1.32,1.27.54,2.39-1.08,1.57-2.62,1.47-3.92.57l-1.58-1.1,4.39-6.35Zm-2.89,6.41l.57.39c.63.43,1.47.38,2.2-.68.66-.96.25-1.38-.43-1.85l-.58-.4-1.76,2.55Zm2.21-3.2l.62.43c.53.37,1.15.3,1.66-.44.53-.76.19-1.24-.29-1.57l-.6-.42-1.38,2Z"/>
    <path class="cls-2" d="m157.88,42.43c-.51.58-.55.62-.73.46l-2.71-2.4,5.13-5.79s.14-.13.32.03l2.74,2.42c-.5.56-.55.62-.72.47l-1.82-1.61-1.57,1.77,1.72,1.52c-.47.52-.56.63-.74.48l-1.55-1.37-2.03,2.29,1.96,1.74Z"/>
    <path class="cls-2" d="m162.41,45.63l-1.73-1.98-1.79.77c-.12.05-.2.05-.52-.32-.11-.13-.31-.38-.49-.61l7.66-3.06c.11-.05.25.05.43.25.14.16.27.33.36.46l-4.05,7.16c-.07.1-.18.09-.5-.28-.12-.14-.28-.32-.46-.57l1.09-1.82Zm-.92-2.34l1.39,1.59.87-1.45c.4-.68.93-1.42,1.29-1.83-.47.29-1.27.7-1.99,1.02l-1.55.66Z"/>
    <path class="cls-2" d="m166.72,49.71c.28-.51,1.39-2.15,1.93-2.95-.57.47-2.37,1.69-2.78,1.95l-2.32,1.48q-.15.1-.82-.95l6.53-4.15c.11-.07.2-.04.3.12l.51.8-1.66,3.09c-.33.57-1.4,2.17-1.92,2.94l.03-.02c.52-.46,2.31-1.65,2.76-1.94l2.25-1.43c.16-.1.18-.08.84.95l-6.54,4.16c-.09.06-.2.02-.29-.12l-.5-.79,1.69-3.14Z"/>
    <path class="cls-2" d="m174.99,56.13c-.14.07-.37.07-.61-.06.02-.25-.07-.84-.37-1.48-.38-.82-.88-1.23-1.33-1.02-.38.17-.55.52-.73,1.11l-.58,2.08c-.31,1.02-.68,1.44-1.31,1.73-1.04.48-2.21.29-3.07-1.6-.58-1.27-.5-1.97-.21-2.1.17-.08.46-.09.73.02-.06.38-.01.93.29,1.6.45.99,1.04,1.17,1.67.88.47-.22.72-.57.97-1.42l.56-1.96c.29-.89.6-1.32,1.09-1.54.86-.4,1.86.15,2.58,1.71.6,1.32.61,1.92.32,2.06Z"/>
  </g>
  <text class="cls-1" transform="translate(71.15 122.66) scale(.98 1)"><tspan x="0" y="0">Grande </tspan><tspan class="cls-3" x="65.9" y="0">V</tspan><tspan x="78.52" y="0">enti</tspan></text>
</svg>